<svg width="270" height="37" viewBox="0 0 270 37" fill="none" xmlns="http://www.w3.org/2000/svg">
<g clip-path="url(#clip0_34_3980)">
<path d="M259.306 0.536133H263.566V1.46221H261.936V5.7514H260.953V1.46221H259.309V0.536133H259.306ZM264.468 0.536133H265.564L267.225 3.31149H267.257L268.918 0.536133H270V5.7514H269.063V2.01843H269.032L267.321 4.85686H267.158L265.433 2.00122H265.401V5.74853H264.465V0.536133H264.468Z" fill="#000303"/>
<path d="M116.678 36.4639H126.873V23.9719H148.347V14.9635H126.873V9.59912H149.161V0.539062H116.678V36.4639Z" fill="#000303"/>
<path d="M161.374 9.43848H151.179V36.4638H161.374V9.43848Z" fill="#000303"/>
<path d="M161.374 0.539062H151.179V6.97285H161.374V0.539062Z" fill="#000303"/>
<path d="M185.728 8.90241C179.276 8.90241 176.237 11.9043 175.425 16.4085H174.883V0.539062H164.688V36.4639H174.231V29.1728H174.773C175.64 34.5343 178.893 37.0029 185.293 37.0029C193.643 37.0029 198.254 31.693 198.254 22.9541C198.254 14.2152 193.753 8.90528 185.728 8.90528V8.90241ZM181.607 27.7766C177.052 27.7766 174.883 26.9193 174.883 23.0028V22.6272C174.883 18.8197 177.052 18.0685 181.607 18.0685C186.162 18.0685 187.951 19.3559 187.951 22.9484C187.951 26.5408 186.325 27.7737 181.607 27.7737V27.7766Z" fill="#000303"/>
<path d="M215.312 8.90234C206.201 8.90234 199.747 14.1577 199.747 22.9512C199.747 33.0864 206.253 37 215.529 37C224.805 37 230.549 32.7624 230.549 26.7587V26.1164H220.354V26.7071C220.354 28.3155 219.27 29.0122 215.149 29.0122C210.812 29.0122 209.347 28.1005 209.182 24.8291H230.604C230.711 23.8629 230.766 23.1662 230.766 22.2545C230.766 13.5671 224.747 8.90234 215.312 8.90234ZM209.347 19.7343C209.782 17.4291 211.354 16.6235 215.094 16.6235C218.835 16.6235 220.516 17.4291 220.896 19.7343H209.344H209.347Z" fill="#000303"/>
<path d="M252.359 8.90234C246.937 8.90234 244.116 12.0648 243.356 16.5174H242.814V9.43849H233.271V36.4638H243.466V20.3249C243.466 18.1803 244.278 17.3746 247.044 17.3746C249.81 17.3746 250.57 18.1803 250.57 20.431V23.5934H260.765V18.2319C260.765 12.8159 258.379 8.90234 252.359 8.90234Z" fill="#000303"/>
<path d="M18.7166 9.65355H18.7659C21.6654 9.69655 23.64 10.0578 24.9419 11.0527C26.2554 12.0476 26.8817 13.679 27.0934 16.2479H37.3259C36.4415 6.41085 29.7059 0.114684 18.763 0H18.7137C6.92412 0.103216 0 7.37133 0 18.5014C0 29.6315 6.92412 36.8997 18.7166 37.0029H18.7659C29.7088 36.8911 36.4444 30.592 37.3259 20.755H27.0934C26.6787 25.8728 24.5795 27.2862 18.7659 27.3493H18.7166C15.3966 27.3149 13.2886 26.8476 11.9983 25.5201C10.7138 24.1926 10.2557 21.9993 10.2557 18.5014C10.2557 11.5114 12.0824 9.72522 18.7166 9.65355ZM20.5723 29.0667C24.9071 28.7485 27.798 27.2805 28.6794 22.5412H35.2585C33.8899 29.9871 28.6562 34.477 20.5723 35.1335V29.0667ZM8.49857 16.7124H1.87311C2.52551 7.97342 8.03174 2.55459 16.9566 1.86362V7.93615C11.1865 8.36908 8.85812 10.7832 8.49857 16.7124Z" fill="#000303"/>
<path d="M53.6039 7.93896C44.3863 7.93896 39.7209 14.5333 39.7209 22.4695C39.7209 30.4056 44.8183 36.9483 53.7663 36.9483C61.5226 36.9483 66.0227 32.4986 66.7824 27.4582H58.7013C58.2142 28.7456 56.8572 30.2451 53.7663 30.2451C49.9708 30.2451 48.2891 27.9399 48.234 24.6685H67.1593V21.6122C67.1593 13.9972 62.2794 7.93896 53.601 7.93896H53.6039ZM48.2891 19.4676C48.4514 16.7869 50.023 14.6967 53.6039 14.6967C56.9123 14.6967 58.4839 16.7869 58.6462 19.4676H48.2891Z" fill="#000303"/>
<path d="M76.5248 12.8159H76.3074L75.7652 8.58119H69.6384V36.4638H76.5248V22.7906C76.5248 17.7502 79.0184 14.7999 83.3591 14.7999H85.9078V8.15112H83.8462C80.2682 8.15112 77.7716 10.1868 76.5248 12.8159Z" fill="#000303"/>
<path d="M101.699 31.5841C99.2051 31.5841 98.0656 30.4573 98.0656 27.831V13.9973H104.845V8.79633H98.0656V1.45081H97.5233L92.1563 2.95317V8.79633H87.2764V13.9973H91.8866V28.9033C91.8866 33.6771 94.2179 36.9456 100.182 36.9456C102.296 36.9456 104.088 36.6245 104.955 36.3549V31.2085H104.413C103.708 31.4235 102.841 31.5841 101.702 31.5841H101.699Z" fill="#000303"/>
<path d="M110.789 0C108.675 0 107.643 1.23286 107.643 3.11081C107.643 4.98876 108.672 6.27323 110.789 6.27323C112.905 6.27323 113.935 5.04037 113.935 3.11081C113.935 1.18125 112.85 0 110.789 0Z" fill="#000303"/>
<path d="M113.065 9.06287H108.51V36.4638H113.065V9.06287Z" fill="#000303"/>
</g>
<defs>
<clipPath id="clip0_34_3980">
<rect width="270" height="37" fill="white"/>
</clipPath>
</defs>
</svg>
