<svg width="46" height="46" viewBox="0 0 46 46" fill="none" xmlns="http://www.w3.org/2000/svg">
<path d="M21.5316 8.21289C13.6715 8.82831 8.82311 13.6443 8.24902 21.412H14.0841C14.4014 16.1406 16.45 13.9956 21.5327 13.6118V8.21401L21.5316 8.21289Z" fill="#00D8D6"/>
<path d="M43.9067 27.2005C44.1265 25.8108 46.0001 24.5005 46.0001 23C46.0001 21.4995 44.1265 20.1892 43.9067 18.7995C43.6735 17.3247 45.0291 15.4818 44.5559 14.1491C44.0603 12.7549 41.8436 12.2033 41.0923 10.9847C40.3265 9.74381 40.8176 7.51598 39.795 6.47872C38.7533 5.42243 36.4917 5.86329 35.2326 5.06884C33.9981 4.29117 33.443 2.06222 32.0213 1.54415C30.6656 1.05069 28.7808 2.38112 27.2727 2.1316C25.8565 1.89662 24.5312 0.0134274 22.9973 0C21.4656 0.0190221 20.1414 1.89774 18.7275 2.1316C17.2194 2.38112 15.3346 1.05069 13.9789 1.54415C12.5572 2.06222 12.001 4.29117 10.7676 5.06884C9.50845 5.86329 7.24685 5.42243 6.20519 6.47872C5.1826 7.51598 5.67371 9.74493 4.90901 10.9847C4.15664 12.2033 1.94101 12.7549 1.44541 14.1491C0.971117 15.4818 2.32673 17.3247 2.09463 18.8006C1.87486 20.1903 0.0012207 21.5006 0.0012207 23C0.0012207 24.4994 1.87486 25.8108 2.09463 27.2005C2.32785 28.6753 0.972238 30.5182 1.44541 31.8509C1.94101 33.2451 4.15776 33.7967 4.90901 35.0153C5.67483 36.2562 5.18372 38.484 6.20632 39.5213C7.24797 40.5776 9.50957 40.1367 10.7688 40.9312C12.0033 41.7088 12.5583 43.9378 13.9801 44.4558C15.3357 44.9493 17.2205 43.6189 18.7286 43.8684C20.1437 44.1034 21.4701 45.9855 23.004 46C24.5357 45.981 25.8599 44.1023 27.2738 43.8684C28.7819 43.6189 30.6668 44.9493 32.0224 44.4558C33.4441 43.9378 34.0003 41.7088 35.2337 40.9312C36.4929 40.1367 38.7545 40.5776 39.7961 39.5213C40.8187 38.484 40.3276 36.2551 41.0923 35.0153C41.8436 33.7967 44.0603 33.2451 44.5559 31.8509C45.0302 30.5182 43.6746 28.6753 43.9078 27.1994L43.9067 27.2005ZM17.1645 29.2381C18.3003 30.4186 20.1571 30.8326 23.0814 30.864H23.124C28.2448 30.8058 30.0916 29.5503 30.4571 25.0018H39.4676C38.6928 33.7441 32.7602 39.3423 23.124 39.443H23.0814C12.6962 39.3534 6.59988 32.8926 6.59988 23C6.59988 13.1074 12.6962 6.64768 23.0814 6.55816H23.124C32.7602 6.65887 38.6928 12.2558 39.4676 20.9993H30.4571C30.271 18.7167 29.7193 17.2665 28.5621 16.3814C27.4162 15.4974 25.6749 15.1741 23.1229 15.1371H23.0803C17.2373 15.2009 15.6294 16.7898 15.6294 23.0011C15.6294 26.1096 16.0331 28.0588 17.1633 29.2393L17.1645 29.2381Z" fill="#00D8D6"/>
<path d="M37.65 26.5908H31.8553C31.0783 30.8014 28.5341 32.1061 24.7151 32.3892V37.7814C31.8363 37.1985 36.4447 33.2072 37.65 26.5908Z" fill="#00D8D6"/>
</svg>
